<svg width="18" height="17" viewBox="0 0 18 17" fill="none" xmlns="http://www.w3.org/2000/svg">
<g clip-path="url(#clip0)">
<path d="M15.3552 7.09V6.59C15.3646 5.09932 14.7834 3.66557 13.7387 2.60215C12.694 1.53873 11.2708 0.932152 9.78023 0.915001H9.72523C8.43627 0.918715 7.18746 1.36383 6.18674 2.17623C5.18602 2.98864 4.49376 4.11931 4.22523 5.38C3.23465 5.38 2.28464 5.77351 1.58419 6.47396C0.883742 7.17441 0.490234 8.12442 0.490234 9.115C0.490234 10.1056 0.883742 11.0556 1.58419 11.756C2.28464 12.4565 3.23465 12.85 4.22523 12.85H14.5652C15.2788 12.8577 15.9706 12.6048 16.5109 12.1387C17.0512 11.6725 17.4028 11.0253 17.4998 10.3183C17.5967 9.61135 17.4324 8.89331 17.0375 8.29892C16.6427 7.70454 16.0445 7.27468 15.3552 7.09Z" fill="#0085FF"/>
<path d="M14.79 15.09H9.42504V13.89H8.42504V15.09H3.04004C2.90743 15.09 2.78025 15.1427 2.68649 15.2364C2.59272 15.3302 2.54004 15.4574 2.54004 15.59C2.54004 15.7226 2.59272 15.8498 2.68649 15.9436C2.78025 16.0373 2.90743 16.09 3.04004 16.09H14.79C14.9226 16.09 15.0498 16.0373 15.1436 15.9436C15.2374 15.8498 15.29 15.7226 15.29 15.59C15.29 15.4574 15.2374 15.3302 15.1436 15.2364C15.0498 15.1427 14.9226 15.09 14.79 15.09Z" fill="#0085FF"/>
</g>
<defs>
<clipPath id="clip0">
<rect width="18" height="16" fill="white" transform="translate(0 0.5)"/>
</clipPath>
</defs>
</svg>
