<svg width="16" height="16" viewBox="0 0 16 16" fill="none" xmlns="http://www.w3.org/2000/svg">
<path d="M15.4625 14.2511L12.5569 11.3456C13.628 9.96626 14.1332 8.2306 13.9695 6.49195C13.8059 4.75329 12.9858 3.14235 11.6762 1.98709C10.3666 0.831833 8.66595 0.219103 6.92047 0.273647C5.17498 0.328191 3.5159 1.04591 2.28098 2.28068C1.04606 3.51546 0.328147 5.17446 0.273397 6.91993C0.218648 8.66541 0.831177 10.3661 1.98628 11.6759C3.14139 12.9856 4.75223 13.8059 6.49087 13.9697C8.2295 14.1336 9.96522 13.6286 11.3447 12.5577L14.2503 15.4633C14.3296 15.5439 14.4242 15.6081 14.5285 15.652C14.6327 15.696 14.7447 15.7188 14.8578 15.7193C14.971 15.7197 15.0831 15.6978 15.1877 15.6547C15.2923 15.6116 15.3874 15.5482 15.4674 15.4682C15.5474 15.3882 15.6108 15.2932 15.6539 15.1885C15.697 15.0839 15.7189 14.9718 15.7184 14.8587C15.718 14.7455 15.6951 14.6336 15.6512 14.5293C15.6072 14.425 15.5431 14.3305 15.4624 14.2511H15.4625ZM1.99965 7.14285C1.99965 6.12569 2.30128 5.13137 2.86638 4.28563C3.43148 3.43989 4.23469 2.78072 5.17442 2.39147C6.11416 2.00222 7.14821 1.90037 8.14583 2.09881C9.14345 2.29725 10.0598 2.78706 10.7791 3.5063C11.4983 4.22554 11.9881 5.14191 12.1865 6.13953C12.385 7.13715 12.2831 8.1712 11.8939 9.11094C11.5046 10.0507 10.8455 10.8539 9.99973 11.419C9.15399 11.9841 8.15967 12.2857 7.14251 12.2857C5.77901 12.2842 4.47179 11.7419 3.50765 10.7777C2.54351 9.81357 2.00118 8.50635 1.99965 7.14285Z" fill="#787878"/>
</svg>
